<svg xmlns="http://www.w3.org/2000/svg" version="1.0" viewBox="0 0 512.000000 512.000000"><g fill="#000000"><path d="M132 50c-43 7-75 40-82 82-3 14-3 234 0 247 7 43 40 76 83 84 13 2 233 2 247 0 42-8 75-41 83-83 2-14 2-234 0-247-8-43-41-76-83-83-13-3-236-3-248 0zm252 33a71 71 0 0 1 45 45l3 8v239l-3 8a71 71 0 0 1-45 46l-8 2H137l-8-2a71 71 0 0 1-46-46l-2-8V136l2-8c9-24 27-41 53-47l123-1h117l8 3z"/><path d="M181 174c-6 3-9 10-8 17 0 4 1 5 30 35l30 30-30 30c-29 30-30 31-30 35-2 11 7 20 18 18 4 0 5-1 35-30l30-30 30 30c30 29 31 30 35 30 11 2 20-7 18-18 0-4-1-5-30-35l-30-30 30-30c29-30 30-31 30-35 2-7-2-14-8-17-4-2-6-2-10-2-4 1-5 2-35 31l-30 30-30-30c-31-30-32-31-39-31l-6 2z"/></g></svg>